<mxfile host="app.diagrams.net" modified="2021-01-24T18:30:20.597Z" agent="5.0 (Windows NT 10.0; Win64; x64) AppleWebKit/537.36 (KHTML, like Gecko) Chrome/88.0.4324.104 Safari/537.36" etag="0mnm--BVejewUwlB_krn" version="14.2.7" type="github">
  <diagram id="FhIIgszowJqtaIlsu2ne" name="Page-1">
    <mxGraphModel dx="3695" dy="2220" grid="1" gridSize="10" guides="1" tooltips="1" connect="1" arrows="1" fold="1" page="1" pageScale="1" pageWidth="1100" pageHeight="850" math="0" shadow="0">
      <root>
        <mxCell id="0" />
        <mxCell id="1" parent="0" />
        <mxCell id="4YyxjiWjC3Uuq4r5cC0Z-2" value="" style="rounded=1;whiteSpace=wrap;html=1;" vertex="1" parent="1">
          <mxGeometry x="90" y="-600" width="260" height="230" as="geometry" />
        </mxCell>
        <mxCell id="gz65vQASo40FxyAqh2wa-65" value="" style="rounded=1;whiteSpace=wrap;html=1;" parent="1" vertex="1">
          <mxGeometry x="508" y="-530" width="990" height="490" as="geometry" />
        </mxCell>
        <mxCell id="gz65vQASo40FxyAqh2wa-1" value="" style="rounded=1;whiteSpace=wrap;html=1;" parent="1" vertex="1">
          <mxGeometry x="20" width="1360" height="530" as="geometry" />
        </mxCell>
        <mxCell id="gz65vQASo40FxyAqh2wa-2" value="" style="shape=trapezoid;perimeter=trapezoidPerimeter;whiteSpace=wrap;html=1;fixedSize=1;size=190;rotation=-180;" parent="1" vertex="1">
          <mxGeometry x="20" y="570" width="1340" height="230" as="geometry" />
        </mxCell>
        <mxCell id="gz65vQASo40FxyAqh2wa-3" value="" style="shape=cylinder3;whiteSpace=wrap;html=1;boundedLbl=1;backgroundOutline=1;size=15;" parent="1" vertex="1">
          <mxGeometry x="210" y="830" width="70" height="300" as="geometry" />
        </mxCell>
        <mxCell id="gz65vQASo40FxyAqh2wa-4" value="" style="shape=cylinder3;whiteSpace=wrap;html=1;boundedLbl=1;backgroundOutline=1;size=15;" parent="1" vertex="1">
          <mxGeometry x="290" y="830" width="70" height="300" as="geometry" />
        </mxCell>
        <mxCell id="gz65vQASo40FxyAqh2wa-5" value="" style="shape=cylinder3;whiteSpace=wrap;html=1;boundedLbl=1;backgroundOutline=1;size=15;" parent="1" vertex="1">
          <mxGeometry x="370" y="830" width="70" height="300" as="geometry" />
        </mxCell>
        <mxCell id="gz65vQASo40FxyAqh2wa-6" value="" style="shape=cylinder3;whiteSpace=wrap;html=1;boundedLbl=1;backgroundOutline=1;size=15;" parent="1" vertex="1">
          <mxGeometry x="450" y="830" width="70" height="300" as="geometry" />
        </mxCell>
        <mxCell id="gz65vQASo40FxyAqh2wa-7" value="" style="shape=cylinder3;whiteSpace=wrap;html=1;boundedLbl=1;backgroundOutline=1;size=15;" parent="1" vertex="1">
          <mxGeometry x="530" y="830" width="70" height="300" as="geometry" />
        </mxCell>
        <mxCell id="gz65vQASo40FxyAqh2wa-8" value="" style="shape=cylinder3;whiteSpace=wrap;html=1;boundedLbl=1;backgroundOutline=1;size=15;" parent="1" vertex="1">
          <mxGeometry x="610" y="830" width="70" height="300" as="geometry" />
        </mxCell>
        <mxCell id="gz65vQASo40FxyAqh2wa-9" value="" style="shape=cylinder3;whiteSpace=wrap;html=1;boundedLbl=1;backgroundOutline=1;size=15;" parent="1" vertex="1">
          <mxGeometry x="690" y="830" width="70" height="300" as="geometry" />
        </mxCell>
        <mxCell id="gz65vQASo40FxyAqh2wa-10" value="" style="shape=cylinder3;whiteSpace=wrap;html=1;boundedLbl=1;backgroundOutline=1;size=15;" parent="1" vertex="1">
          <mxGeometry x="770" y="830" width="70" height="300" as="geometry" />
        </mxCell>
        <mxCell id="gz65vQASo40FxyAqh2wa-11" value="" style="shape=cylinder3;whiteSpace=wrap;html=1;boundedLbl=1;backgroundOutline=1;size=15;" parent="1" vertex="1">
          <mxGeometry x="850" y="830" width="70" height="300" as="geometry" />
        </mxCell>
        <mxCell id="gz65vQASo40FxyAqh2wa-12" value="" style="shape=cylinder3;whiteSpace=wrap;html=1;boundedLbl=1;backgroundOutline=1;size=15;" parent="1" vertex="1">
          <mxGeometry x="930" y="830" width="70" height="300" as="geometry" />
        </mxCell>
        <mxCell id="gz65vQASo40FxyAqh2wa-13" value="" style="shape=cylinder3;whiteSpace=wrap;html=1;boundedLbl=1;backgroundOutline=1;size=15;" parent="1" vertex="1">
          <mxGeometry x="1010" y="830" width="70" height="300" as="geometry" />
        </mxCell>
        <mxCell id="gz65vQASo40FxyAqh2wa-14" value="" style="shape=cylinder3;whiteSpace=wrap;html=1;boundedLbl=1;backgroundOutline=1;size=15;" parent="1" vertex="1">
          <mxGeometry x="1090" y="830" width="70" height="300" as="geometry" />
        </mxCell>
        <mxCell id="gz65vQASo40FxyAqh2wa-15" value="" style="shape=curlyBracket;whiteSpace=wrap;html=1;rounded=1;rotation=-90;" parent="1" vertex="1">
          <mxGeometry x="657.5" y="695" width="55" height="960" as="geometry" />
        </mxCell>
        <mxCell id="gz65vQASo40FxyAqh2wa-16" value="&lt;font style=&quot;font-size: 49px&quot;&gt;Physical Disks&lt;/font&gt;" style="text;html=1;strokeColor=none;fillColor=none;align=center;verticalAlign=middle;whiteSpace=wrap;rounded=0;" parent="1" vertex="1">
          <mxGeometry x="505" y="1200" width="360" height="70" as="geometry" />
        </mxCell>
        <mxCell id="gz65vQASo40FxyAqh2wa-17" value="&lt;font style=&quot;font-size: 38px&quot;&gt;Storage Pool&amp;nbsp; &amp;nbsp;10 TB&amp;nbsp; &amp;nbsp;&lt;/font&gt;" style="text;html=1;strokeColor=none;fillColor=none;align=left;verticalAlign=middle;whiteSpace=wrap;rounded=0;" parent="1" vertex="1">
          <mxGeometry x="60" y="480" width="420" height="40" as="geometry" />
        </mxCell>
        <mxCell id="gz65vQASo40FxyAqh2wa-18" value="" style="whiteSpace=wrap;html=1;aspect=fixed;" parent="1" vertex="1">
          <mxGeometry x="150" y="204" width="210" height="210" as="geometry" />
        </mxCell>
        <mxCell id="gz65vQASo40FxyAqh2wa-19" value="" style="whiteSpace=wrap;html=1;aspect=fixed;" parent="1" vertex="1">
          <mxGeometry x="445" y="204" width="210" height="210" as="geometry" />
        </mxCell>
        <mxCell id="gz65vQASo40FxyAqh2wa-20" value="" style="whiteSpace=wrap;html=1;aspect=fixed;" parent="1" vertex="1">
          <mxGeometry x="1045" y="204" width="210" height="210" as="geometry" />
        </mxCell>
        <mxCell id="gz65vQASo40FxyAqh2wa-21" value="" style="whiteSpace=wrap;html=1;aspect=fixed;" parent="1" vertex="1">
          <mxGeometry x="745" y="204" width="210" height="210" as="geometry" />
        </mxCell>
        <mxCell id="gz65vQASo40FxyAqh2wa-22" value="&lt;font style=&quot;font-size: 28px&quot;&gt;Container 10TB&amp;nbsp;&lt;/font&gt;" style="text;html=1;strokeColor=none;fillColor=none;align=left;verticalAlign=middle;whiteSpace=wrap;rounded=0;" parent="1" vertex="1">
          <mxGeometry x="150" y="375" width="215" height="50" as="geometry" />
        </mxCell>
        <mxCell id="gz65vQASo40FxyAqh2wa-24" value="&lt;font style=&quot;font-size: 28px&quot;&gt;Container 10TB&amp;nbsp;&lt;/font&gt;" style="text;html=1;strokeColor=none;fillColor=none;align=left;verticalAlign=middle;whiteSpace=wrap;rounded=0;" parent="1" vertex="1">
          <mxGeometry x="445" y="375" width="210" height="50" as="geometry" />
        </mxCell>
        <mxCell id="gz65vQASo40FxyAqh2wa-25" value="&lt;font style=&quot;font-size: 28px&quot;&gt;Container 10TB&amp;nbsp;&lt;/font&gt;" style="text;html=1;strokeColor=none;fillColor=none;align=left;verticalAlign=middle;whiteSpace=wrap;rounded=0;" parent="1" vertex="1">
          <mxGeometry x="745" y="375" width="220" height="50" as="geometry" />
        </mxCell>
        <mxCell id="gz65vQASo40FxyAqh2wa-26" value="&lt;font style=&quot;font-size: 28px&quot;&gt;Container 10TB&amp;nbsp;&lt;/font&gt;" style="text;html=1;strokeColor=none;fillColor=none;align=left;verticalAlign=middle;whiteSpace=wrap;rounded=0;" parent="1" vertex="1">
          <mxGeometry x="1045" y="375" width="230" height="50" as="geometry" />
        </mxCell>
        <mxCell id="gz65vQASo40FxyAqh2wa-27" value="&lt;font style=&quot;font-size: 19px&quot;&gt;Volume &lt;br&gt;Group &lt;b&gt;&lt;i&gt;&lt;u&gt;A&lt;/u&gt;&lt;/i&gt;&lt;/b&gt;&lt;br&gt;5TB&lt;br&gt;&lt;/font&gt;" style="ellipse;whiteSpace=wrap;html=1;" parent="1" vertex="1">
          <mxGeometry x="142.5" y="115" width="105" height="80" as="geometry" />
        </mxCell>
        <mxCell id="gz65vQASo40FxyAqh2wa-28" value="&lt;font style=&quot;font-size: 20px&quot;&gt;Volume &lt;br&gt;Group &lt;b&gt;&lt;i&gt;&lt;u&gt;B&lt;/u&gt;&lt;/i&gt;&lt;/b&gt;&lt;br&gt;5TB&lt;br&gt;&lt;/font&gt;" style="ellipse;whiteSpace=wrap;html=1;" parent="1" vertex="1">
          <mxGeometry x="260" y="115" width="110" height="80" as="geometry" />
        </mxCell>
        <mxCell id="gz65vQASo40FxyAqh2wa-29" value="&lt;font style=&quot;font-size: 39px&quot;&gt;&lt;br&gt;&lt;/font&gt;" style="shape=cube;whiteSpace=wrap;html=1;boundedLbl=1;backgroundOutline=1;darkOpacity=0.05;darkOpacity2=0.1;" parent="1" vertex="1">
          <mxGeometry x="43" y="-360" width="430" height="270" as="geometry" />
        </mxCell>
        <mxCell id="gz65vQASo40FxyAqh2wa-30" value="&lt;font style=&quot;font-size: 42px&quot;&gt;&lt;br&gt;CVM&lt;/font&gt;" style="whiteSpace=wrap;html=1;aspect=fixed;" parent="1" vertex="1">
          <mxGeometry x="-190" y="-330" width="180" height="180" as="geometry" />
        </mxCell>
        <mxCell id="gz65vQASo40FxyAqh2wa-31" value="" style="endArrow=none;dashed=1;html=1;entryX=0;entryY=0.5;entryDx=0;entryDy=0;exitX=-0.002;exitY=0.167;exitDx=0;exitDy=0;exitPerimeter=0;" parent="1" source="gz65vQASo40FxyAqh2wa-29" target="gz65vQASo40FxyAqh2wa-27" edge="1">
          <mxGeometry width="50" height="50" relative="1" as="geometry">
            <mxPoint x="40" y="-315" as="sourcePoint" />
            <mxPoint x="-190" y="500" as="targetPoint" />
            <Array as="points">
              <mxPoint x="-90" y="-315" />
              <mxPoint x="-90" y="155" />
              <mxPoint x="-30" y="155" />
            </Array>
          </mxGeometry>
        </mxCell>
        <mxCell id="gz65vQASo40FxyAqh2wa-33" value="&lt;font style=&quot;font-size: 30px&quot;&gt;VM1&lt;/font&gt;" style="rhombus;whiteSpace=wrap;html=1;" parent="1" vertex="1">
          <mxGeometry x="100" y="-500" width="120" height="120" as="geometry" />
        </mxCell>
        <mxCell id="gz65vQASo40FxyAqh2wa-34" value="&lt;font style=&quot;font-size: 30px&quot;&gt;VM2&lt;/font&gt;" style="rhombus;whiteSpace=wrap;html=1;" parent="1" vertex="1">
          <mxGeometry x="224" y="-500" width="120" height="120" as="geometry" />
        </mxCell>
        <mxCell id="gz65vQASo40FxyAqh2wa-35" value="&lt;font style=&quot;font-size: 29px&quot;&gt;iSCSI&lt;/font&gt;" style="text;html=1;strokeColor=none;fillColor=none;align=center;verticalAlign=middle;whiteSpace=wrap;rounded=0;" parent="1" vertex="1">
          <mxGeometry x="-200" y="-80" width="140" height="50" as="geometry" />
        </mxCell>
        <mxCell id="gz65vQASo40FxyAqh2wa-38" value="&lt;span style=&quot;font-size: 39px&quot;&gt;Host A&lt;/span&gt;&lt;br style=&quot;font-size: 39px&quot;&gt;&lt;span style=&quot;font-size: 39px&quot;&gt;IQN: xxxxxxx&lt;/span&gt;" style="text;html=1;strokeColor=none;fillColor=none;align=center;verticalAlign=middle;whiteSpace=wrap;rounded=0;" parent="1" vertex="1">
          <mxGeometry x="118" y="-330" width="270" height="120" as="geometry" />
        </mxCell>
        <mxCell id="gz65vQASo40FxyAqh2wa-40" value="&lt;font style=&quot;font-size: 22px&quot;&gt;Disk 0&lt;/font&gt;" style="shape=cylinder3;whiteSpace=wrap;html=1;boundedLbl=1;backgroundOutline=1;size=15;rotation=0;" parent="1" vertex="1">
          <mxGeometry x="98" y="-200" width="90" height="90" as="geometry" />
        </mxCell>
        <mxCell id="gz65vQASo40FxyAqh2wa-41" value="&lt;font style=&quot;font-size: 22px&quot;&gt;Disk 1&lt;/font&gt;" style="shape=cylinder3;whiteSpace=wrap;html=1;boundedLbl=1;backgroundOutline=1;size=15;rotation=0;" parent="1" vertex="1">
          <mxGeometry x="208" y="-200" width="90" height="90" as="geometry" />
        </mxCell>
        <mxCell id="gz65vQASo40FxyAqh2wa-42" value="&lt;font style=&quot;font-size: 22px&quot;&gt;Disk 2&lt;/font&gt;" style="shape=cylinder3;whiteSpace=wrap;html=1;boundedLbl=1;backgroundOutline=1;size=15;rotation=0;" parent="1" vertex="1">
          <mxGeometry x="318" y="-200" width="90" height="90" as="geometry" />
        </mxCell>
        <mxCell id="gz65vQASo40FxyAqh2wa-44" value="" style="endArrow=none;dashed=1;html=1;entryX=0.5;entryY=0;entryDx=0;entryDy=0;exitX=0.5;exitY=1;exitDx=0;exitDy=0;" parent="1" source="gz65vQASo40FxyAqh2wa-33" target="gz65vQASo40FxyAqh2wa-28" edge="1">
          <mxGeometry width="50" height="50" relative="1" as="geometry">
            <mxPoint x="-55" y="-270" as="sourcePoint" />
            <mxPoint x="-190" y="390" as="targetPoint" />
            <Array as="points">
              <mxPoint x="-55" y="-380" />
              <mxPoint x="-55" y="-290" />
              <mxPoint x="-55" y="90" />
              <mxPoint x="315" y="90" />
            </Array>
          </mxGeometry>
        </mxCell>
        <mxCell id="gz65vQASo40FxyAqh2wa-45" value="&lt;font style=&quot;font-size: 33px&quot;&gt;Virtual iSCSI&lt;/font&gt;" style="text;html=1;strokeColor=none;fillColor=none;align=center;verticalAlign=middle;whiteSpace=wrap;rounded=0;" parent="1" vertex="1">
          <mxGeometry x="-142" y="-440" width="240" height="50" as="geometry" />
        </mxCell>
        <mxCell id="gz65vQASo40FxyAqh2wa-46" value="&lt;font style=&quot;font-size: 20px&quot;&gt;&lt;b&gt;(Only AHV)&lt;/b&gt;&lt;/font&gt;" style="text;html=1;strokeColor=none;fillColor=none;align=center;verticalAlign=middle;whiteSpace=wrap;rounded=0;" parent="1" vertex="1">
          <mxGeometry x="-102" y="-480" width="140" height="50" as="geometry" />
        </mxCell>
        <mxCell id="gz65vQASo40FxyAqh2wa-47" value="&lt;font style=&quot;font-size: 39px&quot;&gt;&lt;br&gt;&lt;/font&gt;" style="shape=cube;whiteSpace=wrap;html=1;boundedLbl=1;backgroundOutline=1;darkOpacity=0.05;darkOpacity2=0.1;" parent="1" vertex="1">
          <mxGeometry x="538" y="-360" width="430" height="270" as="geometry" />
        </mxCell>
        <mxCell id="gz65vQASo40FxyAqh2wa-48" value="&lt;span style=&quot;font-size: 39px&quot;&gt;Host B&lt;/span&gt;&lt;br style=&quot;font-size: 39px&quot;&gt;&lt;span style=&quot;font-size: 39px&quot;&gt;IQN: yyyyyyy&lt;/span&gt;" style="text;html=1;strokeColor=none;fillColor=none;align=center;verticalAlign=middle;whiteSpace=wrap;rounded=0;" parent="1" vertex="1">
          <mxGeometry x="613" y="-330" width="270" height="120" as="geometry" />
        </mxCell>
        <mxCell id="gz65vQASo40FxyAqh2wa-49" value="&lt;font style=&quot;font-size: 22px&quot;&gt;Disk 1&lt;/font&gt;" style="shape=cylinder3;whiteSpace=wrap;html=1;boundedLbl=1;backgroundOutline=1;size=15;rotation=0;" parent="1" vertex="1">
          <mxGeometry x="593" y="-200" width="90" height="90" as="geometry" />
        </mxCell>
        <mxCell id="gz65vQASo40FxyAqh2wa-50" value="&lt;font style=&quot;font-size: 22px&quot;&gt;Disk 2&lt;/font&gt;" style="shape=cylinder3;whiteSpace=wrap;html=1;boundedLbl=1;backgroundOutline=1;size=15;rotation=0;" parent="1" vertex="1">
          <mxGeometry x="703" y="-200" width="90" height="90" as="geometry" />
        </mxCell>
        <mxCell id="gz65vQASo40FxyAqh2wa-51" value="&lt;font style=&quot;font-size: 22px&quot;&gt;Disk 3&lt;/font&gt;" style="shape=cylinder3;whiteSpace=wrap;html=1;boundedLbl=1;backgroundOutline=1;size=15;rotation=0;" parent="1" vertex="1">
          <mxGeometry x="813" y="-200" width="90" height="90" as="geometry" />
        </mxCell>
        <mxCell id="gz65vQASo40FxyAqh2wa-52" value="&lt;font style=&quot;font-size: 39px&quot;&gt;&lt;br&gt;&lt;/font&gt;" style="shape=cube;whiteSpace=wrap;html=1;boundedLbl=1;backgroundOutline=1;darkOpacity=0.05;darkOpacity2=0.1;" parent="1" vertex="1">
          <mxGeometry x="1028" y="-360" width="430" height="270" as="geometry" />
        </mxCell>
        <mxCell id="gz65vQASo40FxyAqh2wa-53" value="&lt;span style=&quot;font-size: 39px&quot;&gt;Host C&lt;/span&gt;&lt;br style=&quot;font-size: 39px&quot;&gt;&lt;span style=&quot;font-size: 39px&quot;&gt;IQN: zzzzzzz&lt;/span&gt;" style="text;html=1;strokeColor=none;fillColor=none;align=center;verticalAlign=middle;whiteSpace=wrap;rounded=0;" parent="1" vertex="1">
          <mxGeometry x="1103" y="-330" width="270" height="120" as="geometry" />
        </mxCell>
        <mxCell id="gz65vQASo40FxyAqh2wa-54" value="&lt;font style=&quot;font-size: 22px&quot;&gt;Disk 1&lt;/font&gt;" style="shape=cylinder3;whiteSpace=wrap;html=1;boundedLbl=1;backgroundOutline=1;size=15;rotation=0;" parent="1" vertex="1">
          <mxGeometry x="1083" y="-200" width="90" height="90" as="geometry" />
        </mxCell>
        <mxCell id="gz65vQASo40FxyAqh2wa-55" value="&lt;font style=&quot;font-size: 22px&quot;&gt;Disk 2&lt;/font&gt;" style="shape=cylinder3;whiteSpace=wrap;html=1;boundedLbl=1;backgroundOutline=1;size=15;rotation=0;" parent="1" vertex="1">
          <mxGeometry x="1193" y="-200" width="90" height="90" as="geometry" />
        </mxCell>
        <mxCell id="gz65vQASo40FxyAqh2wa-56" value="&lt;font style=&quot;font-size: 22px&quot;&gt;Disk 3&lt;/font&gt;" style="shape=cylinder3;whiteSpace=wrap;html=1;boundedLbl=1;backgroundOutline=1;size=15;rotation=0;" parent="1" vertex="1">
          <mxGeometry x="1303" y="-200" width="90" height="90" as="geometry" />
        </mxCell>
        <mxCell id="gz65vQASo40FxyAqh2wa-57" value="" style="shape=note;whiteSpace=wrap;html=1;backgroundOutline=1;darkOpacity=0.05;size=14;" parent="1" vertex="1">
          <mxGeometry x="160" y="210" width="30" height="35" as="geometry" />
        </mxCell>
        <mxCell id="gz65vQASo40FxyAqh2wa-58" value="" style="shape=note;whiteSpace=wrap;html=1;backgroundOutline=1;darkOpacity=0.05;size=14;" parent="1" vertex="1">
          <mxGeometry x="200" y="210" width="30" height="35" as="geometry" />
        </mxCell>
        <mxCell id="gz65vQASo40FxyAqh2wa-59" value="" style="shape=note;whiteSpace=wrap;html=1;backgroundOutline=1;darkOpacity=0.05;size=14;" parent="1" vertex="1">
          <mxGeometry x="320" y="210" width="30" height="35" as="geometry" />
        </mxCell>
        <mxCell id="gz65vQASo40FxyAqh2wa-60" value="" style="shape=note;whiteSpace=wrap;html=1;backgroundOutline=1;darkOpacity=0.05;size=14;" parent="1" vertex="1">
          <mxGeometry x="280" y="210" width="30" height="35" as="geometry" />
        </mxCell>
        <mxCell id="gz65vQASo40FxyAqh2wa-61" value="" style="shape=note;whiteSpace=wrap;html=1;backgroundOutline=1;darkOpacity=0.05;size=14;" parent="1" vertex="1">
          <mxGeometry x="180" y="250" width="30" height="35" as="geometry" />
        </mxCell>
        <mxCell id="gz65vQASo40FxyAqh2wa-62" value="" style="shape=cylinder3;whiteSpace=wrap;html=1;boundedLbl=1;backgroundOutline=1;size=6.161298198084637;" parent="1" vertex="1">
          <mxGeometry x="120" y="-420" width="40" height="30" as="geometry" />
        </mxCell>
        <mxCell id="gz65vQASo40FxyAqh2wa-63" value="" style="shape=cylinder3;whiteSpace=wrap;html=1;boundedLbl=1;backgroundOutline=1;size=6.161298198084637;" parent="1" vertex="1">
          <mxGeometry x="170" y="-420" width="40" height="30" as="geometry" />
        </mxCell>
        <mxCell id="gz65vQASo40FxyAqh2wa-64" value="&lt;font style=&quot;font-size: 20px&quot;&gt;Volume Group &lt;b&gt;&lt;i&gt;&lt;u&gt;C&lt;/u&gt;&lt;/i&gt;&lt;/b&gt;&lt;br&gt;5TB&lt;br&gt;&lt;br&gt;&lt;br&gt;&lt;/font&gt;" style="ellipse;whiteSpace=wrap;html=1;" parent="1" vertex="1">
          <mxGeometry x="740" y="40" width="220" height="150" as="geometry" />
        </mxCell>
        <mxCell id="gz65vQASo40FxyAqh2wa-66" value="&lt;font style=&quot;font-size: 40px&quot;&gt;Host Cluster&amp;nbsp;&lt;/font&gt;" style="text;html=1;strokeColor=none;fillColor=none;align=center;verticalAlign=middle;whiteSpace=wrap;rounded=0;" parent="1" vertex="1">
          <mxGeometry x="855.5" y="-447" width="295" height="45" as="geometry" />
        </mxCell>
        <mxCell id="gz65vQASo40FxyAqh2wa-67" value="" style="shape=note;whiteSpace=wrap;html=1;backgroundOutline=1;darkOpacity=0.05;size=14;" parent="1" vertex="1">
          <mxGeometry x="783" y="215" width="30" height="35" as="geometry" />
        </mxCell>
        <mxCell id="gz65vQASo40FxyAqh2wa-68" value="" style="shape=note;whiteSpace=wrap;html=1;backgroundOutline=1;darkOpacity=0.05;size=14;" parent="1" vertex="1">
          <mxGeometry x="900" y="215" width="30" height="35" as="geometry" />
        </mxCell>
        <mxCell id="gz65vQASo40FxyAqh2wa-69" value="" style="shape=note;whiteSpace=wrap;html=1;backgroundOutline=1;darkOpacity=0.05;size=14;" parent="1" vertex="1">
          <mxGeometry x="840" y="215" width="30" height="35" as="geometry" />
        </mxCell>
        <mxCell id="gz65vQASo40FxyAqh2wa-70" value="&lt;font style=&quot;font-size: 15px&quot;&gt;Attach:&amp;nbsp;&lt;br&gt;IQN: yyyyyyyy&lt;br&gt;IQN: zzzzzzzz&lt;/font&gt;" style="text;html=1;strokeColor=none;fillColor=none;align=center;verticalAlign=middle;whiteSpace=wrap;rounded=0;" parent="1" vertex="1">
          <mxGeometry x="795" y="110" width="110" height="80" as="geometry" />
        </mxCell>
        <mxCell id="gz65vQASo40FxyAqh2wa-71" value="" style="endArrow=none;dashed=1;html=1;entryX=1;entryY=1;entryDx=0;entryDy=0;entryPerimeter=0;exitX=1;exitY=0.5;exitDx=0;exitDy=0;" parent="1" source="gz65vQASo40FxyAqh2wa-64" target="gz65vQASo40FxyAqh2wa-52" edge="1">
          <mxGeometry width="50" height="50" relative="1" as="geometry">
            <mxPoint x="-160" y="570" as="sourcePoint" />
            <mxPoint x="-110" y="520" as="targetPoint" />
          </mxGeometry>
        </mxCell>
        <mxCell id="gz65vQASo40FxyAqh2wa-72" value="" style="endArrow=none;dashed=1;html=1;exitX=0;exitY=0.5;exitDx=0;exitDy=0;entryX=0;entryY=0;entryDx=20;entryDy=270;entryPerimeter=0;" parent="1" source="gz65vQASo40FxyAqh2wa-64" target="gz65vQASo40FxyAqh2wa-47" edge="1">
          <mxGeometry width="50" height="50" relative="1" as="geometry">
            <mxPoint x="-90" y="-70" as="sourcePoint" />
            <mxPoint x="-40" y="-120" as="targetPoint" />
          </mxGeometry>
        </mxCell>
        <mxCell id="gz65vQASo40FxyAqh2wa-73" value="&lt;font style=&quot;font-size: 33px&quot;&gt;vDisk&lt;/font&gt;" style="shape=note;whiteSpace=wrap;html=1;backgroundOutline=1;darkOpacity=0.05;" parent="1" vertex="1">
          <mxGeometry x="1510" y="180" width="130" height="160" as="geometry" />
        </mxCell>
        <mxCell id="gz65vQASo40FxyAqh2wa-74" value="&lt;i&gt;&lt;font style=&quot;font-size: 17px&quot; face=&quot;Verdana&quot;&gt;(Requires&amp;nbsp;WSFC)&lt;/font&gt;&lt;/i&gt;" style="text;html=1;strokeColor=none;fillColor=none;align=center;verticalAlign=middle;whiteSpace=wrap;rounded=0;labelBackgroundColor=#ffffff;" parent="1" vertex="1">
          <mxGeometry x="1010" y="50" width="135" height="20" as="geometry" />
        </mxCell>
        <mxCell id="gz65vQASo40FxyAqh2wa-76" value="&lt;font style=&quot;font-size: 32px&quot;&gt;Flash&lt;/font&gt;" style="text;html=1;strokeColor=none;fillColor=none;align=center;verticalAlign=middle;whiteSpace=wrap;rounded=0;labelBackgroundColor=#ffffff;rotation=-90;" parent="1" vertex="1">
          <mxGeometry x="160" y="970" width="170" height="45" as="geometry" />
        </mxCell>
        <mxCell id="gz65vQASo40FxyAqh2wa-77" value="&lt;font style=&quot;font-size: 32px&quot;&gt;Flash&lt;/font&gt;" style="text;html=1;strokeColor=none;fillColor=none;align=center;verticalAlign=middle;whiteSpace=wrap;rounded=0;labelBackgroundColor=#ffffff;rotation=-90;" parent="1" vertex="1">
          <mxGeometry x="240" y="970" width="170" height="45" as="geometry" />
        </mxCell>
        <mxCell id="gz65vQASo40FxyAqh2wa-78" value="&lt;font style=&quot;font-size: 32px&quot;&gt;Flash&lt;/font&gt;" style="text;html=1;strokeColor=none;fillColor=none;align=center;verticalAlign=middle;whiteSpace=wrap;rounded=0;labelBackgroundColor=#ffffff;rotation=-90;" parent="1" vertex="1">
          <mxGeometry x="320" y="970" width="170" height="45" as="geometry" />
        </mxCell>
        <mxCell id="gz65vQASo40FxyAqh2wa-79" value="&lt;font style=&quot;font-size: 32px&quot;&gt;Flash&lt;/font&gt;" style="text;html=1;strokeColor=none;fillColor=none;align=center;verticalAlign=middle;whiteSpace=wrap;rounded=0;labelBackgroundColor=#ffffff;rotation=-90;" parent="1" vertex="1">
          <mxGeometry x="400" y="970" width="170" height="45" as="geometry" />
        </mxCell>
        <mxCell id="gz65vQASo40FxyAqh2wa-80" value="&lt;font style=&quot;font-size: 32px&quot;&gt;Flash&lt;/font&gt;" style="text;html=1;strokeColor=none;fillColor=none;align=center;verticalAlign=middle;whiteSpace=wrap;rounded=0;labelBackgroundColor=#ffffff;rotation=-90;" parent="1" vertex="1">
          <mxGeometry x="480" y="970" width="170" height="45" as="geometry" />
        </mxCell>
        <mxCell id="gz65vQASo40FxyAqh2wa-81" value="&lt;font style=&quot;font-size: 32px&quot;&gt;HDD&lt;/font&gt;" style="text;html=1;strokeColor=none;fillColor=none;align=center;verticalAlign=middle;whiteSpace=wrap;rounded=0;labelBackgroundColor=#ffffff;rotation=-90;" parent="1" vertex="1">
          <mxGeometry x="560" y="970" width="170" height="45" as="geometry" />
        </mxCell>
        <mxCell id="gz65vQASo40FxyAqh2wa-82" value="&lt;font style=&quot;font-size: 32px&quot;&gt;HDD&lt;/font&gt;" style="text;html=1;strokeColor=none;fillColor=none;align=center;verticalAlign=middle;whiteSpace=wrap;rounded=0;labelBackgroundColor=#ffffff;rotation=-90;" parent="1" vertex="1">
          <mxGeometry x="640" y="970" width="170" height="45" as="geometry" />
        </mxCell>
        <mxCell id="gz65vQASo40FxyAqh2wa-83" value="&lt;font style=&quot;font-size: 32px&quot;&gt;HDD&lt;/font&gt;" style="text;html=1;strokeColor=none;fillColor=none;align=center;verticalAlign=middle;whiteSpace=wrap;rounded=0;labelBackgroundColor=#ffffff;rotation=-90;" parent="1" vertex="1">
          <mxGeometry x="720" y="970" width="170" height="45" as="geometry" />
        </mxCell>
        <mxCell id="gz65vQASo40FxyAqh2wa-84" value="&lt;font style=&quot;font-size: 32px&quot;&gt;HDD&lt;/font&gt;" style="text;html=1;strokeColor=none;fillColor=none;align=center;verticalAlign=middle;whiteSpace=wrap;rounded=0;labelBackgroundColor=#ffffff;rotation=-90;" parent="1" vertex="1">
          <mxGeometry x="800" y="970" width="170" height="45" as="geometry" />
        </mxCell>
        <mxCell id="gz65vQASo40FxyAqh2wa-85" value="&lt;font style=&quot;font-size: 32px&quot;&gt;HDD&lt;/font&gt;" style="text;html=1;strokeColor=none;fillColor=none;align=center;verticalAlign=middle;whiteSpace=wrap;rounded=0;labelBackgroundColor=#ffffff;rotation=-90;" parent="1" vertex="1">
          <mxGeometry x="880" y="970" width="170" height="45" as="geometry" />
        </mxCell>
        <mxCell id="gz65vQASo40FxyAqh2wa-86" value="&lt;font style=&quot;font-size: 32px&quot;&gt;HDD&lt;/font&gt;" style="text;html=1;strokeColor=none;fillColor=none;align=center;verticalAlign=middle;whiteSpace=wrap;rounded=0;labelBackgroundColor=#ffffff;rotation=-90;" parent="1" vertex="1">
          <mxGeometry x="960" y="970" width="170" height="45" as="geometry" />
        </mxCell>
        <mxCell id="gz65vQASo40FxyAqh2wa-87" value="&lt;font style=&quot;font-size: 32px&quot;&gt;HDD&lt;/font&gt;" style="text;html=1;strokeColor=none;fillColor=none;align=center;verticalAlign=middle;whiteSpace=wrap;rounded=0;labelBackgroundColor=#ffffff;rotation=-90;" parent="1" vertex="1">
          <mxGeometry x="1040" y="970" width="170" height="45" as="geometry" />
        </mxCell>
        <mxCell id="4YyxjiWjC3Uuq4r5cC0Z-1" value="&lt;font style=&quot;font-size: 30px&quot;&gt;FSVM&lt;/font&gt;" style="rhombus;whiteSpace=wrap;html=1;" vertex="1" parent="1">
          <mxGeometry x="365" y="-500" width="120" height="120" as="geometry" />
        </mxCell>
        <mxCell id="4YyxjiWjC3Uuq4r5cC0Z-7" value="" style="endArrow=classic;startArrow=classic;html=1;dashed=1;entryX=0.5;entryY=1;entryDx=0;entryDy=0;exitX=1;exitY=0.25;exitDx=0;exitDy=0;" edge="1" parent="1" source="gz65vQASo40FxyAqh2wa-30" target="4YyxjiWjC3Uuq4r5cC0Z-1">
          <mxGeometry width="50" height="50" relative="1" as="geometry">
            <mxPoint x="-340" y="-180" as="sourcePoint" />
            <mxPoint x="-290" y="-230" as="targetPoint" />
            <Array as="points">
              <mxPoint x="425" y="-285" />
            </Array>
          </mxGeometry>
        </mxCell>
        <mxCell id="4YyxjiWjC3Uuq4r5cC0Z-8" value="&lt;font style=&quot;font-size: 30px&quot;&gt;FSVM&lt;/font&gt;" style="rhombus;whiteSpace=wrap;html=1;" vertex="1" parent="1">
          <mxGeometry x="560" y="-490" width="120" height="120" as="geometry" />
        </mxCell>
        <mxCell id="4YyxjiWjC3Uuq4r5cC0Z-9" value="&lt;font style=&quot;font-size: 30px&quot;&gt;FSVM&lt;/font&gt;" style="rhombus;whiteSpace=wrap;html=1;" vertex="1" parent="1">
          <mxGeometry x="1330" y="-490" width="120" height="120" as="geometry" />
        </mxCell>
        <mxCell id="4YyxjiWjC3Uuq4r5cC0Z-10" value="&lt;font style=&quot;font-size: 40px&quot;&gt;UVMs&lt;/font&gt;" style="text;html=1;strokeColor=none;fillColor=none;align=center;verticalAlign=middle;whiteSpace=wrap;rounded=0;" vertex="1" parent="1">
          <mxGeometry x="98" y="-595" width="120" height="65" as="geometry" />
        </mxCell>
      </root>
    </mxGraphModel>
  </diagram>
</mxfile>
